HIERARCHY
ROOT Hips
{
	OFFSET -3.958830 18.904000 13.208200
	CHANNELS 6 Xposition Yposition Zposition Zrotation Yrotation Xrotation 
	JOINT LHipJoint
	{
		OFFSET 0.000000 0.000000 0.000000
		CHANNELS 3 Zrotation Yrotation Xrotation
		JOINT LeftUpLeg
		{
			OFFSET 1.800000 -1.400000 0.085000
			CHANNELS 3 Zrotation Yrotation Xrotation
			JOINT LeftLeg
			{
				OFFSET 2.215000 -6.000000 0.000000
				CHANNELS 3 Zrotation Yrotation Xrotation
				JOINT LeftFoot
				{
					OFFSET 2.500000 -6.900000 0.000000
					CHANNELS 3 Zrotation Yrotation Xrotation
					JOINT LeftToeBase
					{
						OFFSET 0.200000 -0.500000 1.950000
						CHANNELS 3 Zrotation Yrotation Xrotation
						End Site
						{
							OFFSET 0.000000 0.000000 0.000000
						}
					}
				}
			}
		}
	}
	JOINT RHipJoint
	{
		OFFSET 0.000000 0.000000 0.000000
		CHANNELS 3 Zrotation Yrotation Xrotation
		JOINT RightUpLeg
		{
			OFFSET -1.800000 -1.400000 0.085000
			CHANNELS 3 Zrotation Yrotation Xrotation
			JOINT RightLeg
			{
				OFFSET -2.215000 -6.000000 0.000000
				CHANNELS 3 Zrotation Yrotation Xrotation
				JOINT RightFoot
				{
					OFFSET -2.500000 -6.900000 0.000000
					CHANNELS 3 Zrotation Yrotation Xrotation
					JOINT RightToeBase
					{
						OFFSET -0.200000 -0.500000 1.950000
						CHANNELS 3 Zrotation Yrotation Xrotation
						End Site
						{
							OFFSET 0.000000 0.000000 0.000000
						}
					}
				}
			}
		}
	}
	JOINT LowerBack
	{
		OFFSET 0.000000 0.000000 0.000000
		CHANNELS 3 Zrotation Yrotation Xrotation
		JOINT Spine
		{
			OFFSET -0.087000 1.940000 -0.288900
			CHANNELS 3 Zrotation Yrotation Xrotation
			JOINT Spine1
			{
				OFFSET 0.000000 1.950000 0.060000
				CHANNELS 3 Zrotation Yrotation Xrotation
				JOINT Neck
				{
					OFFSET 0.000000 0.000000 0.000000
					CHANNELS 3 Zrotation Yrotation Xrotation
					JOINT Neck1
					{
						OFFSET 0.000000 1.600000 0.340000
						CHANNELS 3 Zrotation Yrotation Xrotation
						JOINT Head
						{
							OFFSET 0.000000 1.667000 -0.240000
							CHANNELS 3 Zrotation Yrotation Xrotation
							End Site
							{
								OFFSET 0.000000 0.000000 0.000000
							}
						}
					}
				}
				JOINT LeftShoulder
				{
					OFFSET 0.000000 0.000000 0.000000
					CHANNELS 3 Zrotation Yrotation Xrotation
					JOINT LeftArm
					{
						OFFSET 2.700000 1.550000 -0.730000
						CHANNELS 3 Zrotation Yrotation Xrotation
						JOINT LeftForeArm
						{
							OFFSET 5.450000 0.000000 0.000000
							CHANNELS 3 Zrotation Yrotation Xrotation
							JOINT LeftHand
							{
								OFFSET 3.450000 0.000000 0.000000
								CHANNELS 3 Zrotation Yrotation Xrotation
								JOINT LeftHandIndex1
								{
									OFFSET 0.750000 0.000000 0.000000
									CHANNELS 3 Zrotation Yrotation Xrotation
									End Site
									{
										OFFSET 0.000000 0.000000 0.000000
									}
								}
							}
						}
					}
				}
				JOINT RightShoulder
				{
					OFFSET 0.000000 0.000000 0.000000
					CHANNELS 3 Zrotation Yrotation Xrotation
					JOINT RightArm
					{
						OFFSET -2.700000 1.550000 -0.730000
						CHANNELS 3 Zrotation Yrotation Xrotation
						JOINT RightForeArm
						{
							OFFSET -5.450000 0.000000 0.000000
							CHANNELS 3 Zrotation Yrotation Xrotation
							JOINT RightHand
							{
								OFFSET -3.450000 0.000000 0.000000
								CHANNELS 3 Zrotation Yrotation Xrotation
								JOINT RightHandIndex1
								{
									OFFSET -0.750000 0.000000 0.000000
									CHANNELS 3 Zrotation Yrotation Xrotation
									End Site
									{
										OFFSET 0.000000 0.000000 0.000000
									}
								}
							}
						}
					}
				}
			}
		}
	}
}
MOTION
Frames: 9
Frame Time: 0.016667
-0.408810 16.955760 -1.488880 7.485116 -13.720414 8.134069 -15.051508 12.819561 2.575517 11.497524 -2.492020 -21.190660 -5.445555 5.443273 14.592325 -0.657844 3.702422 3.137183 0.611430 0.679050 0.293550 18.520112 -9.460807 4.085825 -6.764293 7.609667 -36.456676 22.664152 -9.016579 21.541435 -0.360907 -4.344226 2.676355 0.599320 0.081200 0.065820 -4.106934 -2.323596 -7.477508 11.923796 -3.533125 15.582575 -3.678564 -1.266190 7.566435 -2.588918 -9.599692 -6.218433 -16.886562 5.781242 18.298020 -2.963050 1.948890 -18.320670 -6.774951 10.046301 0.380663 -17.565789 5.531172 0.071368 -143.371664 -71.108046 125.657429 -3.674666 3.637425 0.177920 0.094170 0.012730 0.189160 11.202257 -3.780692 2.707377 27.683816 -12.508795 -8.166986 59.065324 40.240891 15.540470 1.912020 -2.092940 -0.111340 0.297940 -0.128470 -0.100230 
-0.276650 16.825240 -1.480830 6.437762 -13.286652 7.994526 -15.026047 12.639991 2.462044 13.029526 -2.481491 -22.138670 -4.482985 5.548207 16.082739 -0.669234 3.794589 3.086620 0.616890 0.671700 0.297880 18.588885 -9.244482 4.449782 -10.004954 8.450519 -39.433643 26.712281 -11.391589 25.089363 -0.584385 -5.372576 2.304148 0.593360 0.069020 0.054410 -4.268912 -2.173895 -7.661240 13.337614 -3.776670 17.656642 -3.941672 -1.159988 6.557290 -2.689768 -10.244045 -6.020812 -17.970322 5.531043 18.138596 -2.334130 1.208800 -19.518000 -8.815115 9.458211 -0.004323 -19.559904 4.645931 -0.919266 -136.201055 -71.476426 116.197025 -3.641214 3.509614 0.216540 0.057950 0.027370 0.187190 13.309600 -2.776357 2.629839 28.472659 -10.430632 -7.982186 60.560368 43.994231 18.424448 1.961487 -2.071130 -0.119480 0.320300 -0.122130 -0.103970 
-0.137010 16.711680 -1.488110 5.625626 -12.197044 7.252791 -15.020358 12.341484 2.329473 14.328913 -2.625620 -23.478823 -3.851499 6.108449 19.612159 -0.642707 4.122120 2.937869 0.597720 0.634270 0.331530 18.677620 -8.869769 5.010647 -16.641784 8.329314 -43.225352 33.875444 -15.969111 29.382122 -1.001213 -7.144064 1.705681 0.552030 0.015650 0.039670 -4.432564 -2.049789 -7.976515 14.963044 -4.271557 20.946609 -5.021795 -1.118960 5.163783 -2.137137 -10.645183 -5.849914 -18.656875 5.001486 18.617151 -3.332570 0.960100 -21.513360 -12.276120 7.813691 -0.934522 -20.396131 2.818180 -2.444543 -123.985733 -72.678605 101.951746 -3.658418 3.163830 0.281120 0.006500 0.070480 0.153250 15.532899 -1.196173 2.973300 30.919125 -8.631805 -8.451961 60.239407 48.136278 20.755681 2.034127 -1.983362 -0.126710 0.333040 -0.113260 -0.132170 
-0.013340 16.572700 -1.480600 4.581407 -11.048303 6.886584 -15.047345 11.910959 2.213765 15.991700 -2.746669 -25.042609 -3.462853 6.917946 23.532975 -0.607914 4.643838 2.715114 0.586820 0.594880 0.377990 18.783991 -8.345104 5.676477 -24.861147 6.912118 -46.749794 43.682106 -21.480741 31.227788 -1.473423 -8.850762 1.176080 0.518660 -0.049210 0.025800 -4.573146 -1.939564 -8.345904 16.727143 -4.639626 23.637928 -6.047687 -0.888529 3.795563 -1.370224 -10.744109 -5.776011 -18.602363 3.903256 19.053533 -4.626030 0.336920 -23.473490 -15.632928 6.274651 -1.637049 -21.566903 0.840887 -3.219397 -109.032154 -74.351497 85.582032 -3.803397 2.661887 0.352960 -0.047630 0.112600 0.119440 17.269087 0.208843 3.356231 33.442984 -6.867764 -8.679127 60.687396 53.322759 24.049297 2.104353 -1.906452 -0.141790 0.336560 -0.111160 -0.170630 
0.108850 16.460660 -1.481140 3.525698 -9.521828 5.782900 -15.058910 11.554296 2.158244 17.206253 -2.867170 -26.385901 -2.697447 7.747323 28.100145 -0.548329 5.282113 2.447738 0.591500 0.580200 0.426960 18.884885 -7.979102 6.179601 -32.478524 4.483984 -48.223332 52.446123 -26.234025 31.204241 -1.830008 -9.878363 0.882919 0.490080 -0.123770 0.027590 -4.695414 -1.774651 -8.665671 18.813789 -5.608509 26.887111 -7.974737 -1.073402 2.610974 -0.290139 -10.510824 -5.805639 -18.094718 3.226223 20.168357 -5.705550 -0.020440 -25.986000 -20.452840 3.664066 -1.834242 -20.006605 -1.538833 -2.629346 -87.881856 -76.827151 65.354024 -3.952135 2.678997 0.429470 -0.106380 0.171880 0.087700 19.874755 2.433876 3.682291 35.072191 -4.285623 -8.696435 60.510305 58.690525 27.148037 2.175809 -1.804433 -0.138280 0.330330 -0.111890 -0.204270 
0.224650 16.370990 -1.489960 2.171885 -8.373597 4.159388 -15.061470 11.315370 2.197100 18.734239 -2.775591 -27.338264 -2.274400 8.669061 32.022487 -0.442140 5.968520 2.177307 0.562380 0.526200 0.447250 18.956156 -7.746225 6.469960 -38.827397 2.328201 -47.939316 59.631256 -30.356965 30.907145 -2.065055 -10.449117 0.747382 0.431490 -0.180580 0.022770 -4.772100 -1.680734 -8.938281 21.251177 -6.991989 30.274103 -10.307522 -1.427820 1.409310 1.038744 -9.994965 -6.015207 -17.637555 2.877905 22.982398 -6.470540 -0.246510 -26.966830 -25.354145 -0.304477 -1.872384 -18.519022 -2.383361 -4.689402 -58.797282 -74.578925 40.406339 -3.613722 3.297452 0.489060 -0.155960 0.212920 0.057140 22.020574 5.776006 4.630394 35.868809 -1.462734 -8.509586 62.393521 64.309231 31.440110 2.286514 -1.675348 -0.136260 0.314910 -0.104560 -0.228360 
0.304290 16.289830 -1.488270 0.910480 -7.978125 2.773434 -15.077873 11.176909 2.342018 20.141852 -2.576008 -28.555643 -1.813043 9.632861 35.877846 -0.313278 6.686167 1.897206 0.539940 0.486010 0.468910 18.981283 -7.609061 6.543953 -43.274473 1.223401 -46.824668 63.481383 -33.806342 31.747950 -2.211190 -10.796242 0.664337 0.383140 -0.233140 0.019790 -4.772621 -1.700503 -9.142833 22.849327 -7.938807 32.597252 -11.878610 -1.553752 0.363924 2.069377 -9.305514 -6.342945 -17.222089 3.419160 26.534475 -7.230150 0.152950 -26.888930 -29.269769 -4.331763 -1.613652 -18.089355 -3.120244 -6.513837 -36.288062 -66.911449 20.821821 -3.440113 3.308668 0.526970 -0.194560 0.247580 0.029420 23.785010 9.293911 5.488893 36.240090 1.976596 -8.216683 62.129132 68.493895 33.735783 2.376606 -1.564091 -0.126820 0.289580 -0.103330 -0.247240 
0.338360 16.243000 -1.473430 -0.171904 -7.876098 1.958021 -15.101108 11.151041 2.464010 21.246936 -2.176982 -29.585225 -0.814026 10.182719 38.744509 -0.201242 7.182664 1.705246 0.528640 0.467020 0.470990 18.976272 -7.506525 6.558047 -46.234264 1.107544 -45.700440 65.968922 -35.349483 31.715617 -2.272774 -10.885816 0.652808 0.349410 -0.265640 0.016120 -4.727303 -1.817171 -9.289692 23.599475 -8.431640 33.506905 -12.556128 -1.514610 -0.284141 2.749438 -8.811305 -7.026343 -17.210294 4.145801 30.006170 -7.224470 0.263260 -26.179610 -32.255278 -8.109684 -0.505771 -19.481971 -3.501762 -7.285497 -20.609467 -56.170788 8.980733 -3.334616 3.215913 0.543630 -0.223290 0.269150 0.018910 25.393353 13.221822 6.073398 35.959308 6.343120 -8.055241 57.148306 71.479600 32.571253 2.366633 -1.542625 -0.109300 0.269320 -0.105390 -0.248340 
0.352310 16.239200 -1.449750 -1.299638 -8.427877 1.608919 -15.103610 11.140813 2.580744 22.454595 -1.633111 -30.176100 -0.334583 10.718230 40.509796 -0.104901 7.556711 1.557339 0.513550 0.454410 0.449610 18.973532 -7.472420 6.508578 -47.046071 1.828309 -44.928386 66.413259 -35.863923 32.101618 -2.291013 -10.947760 0.640139 0.324350 -0.277070 0.018580 -4.732157 -1.838626 -9.373482 24.352006 -8.864977 33.557044 -13.317209 -1.543394 -0.506461 3.250970 -8.471259 -7.826322 -17.411032 5.384646 33.133543 -7.058810 0.665540 -24.458280 -34.916553 -11.034328 0.707041 -21.133724 -3.836316 -7.105462 -9.429409 -43.978368 2.856971 -3.276581 3.140836 0.533430 -0.229380 0.271970 0.014290 27.013999 16.328973 6.635790 36.108252 9.983565 -7.155855 59.792527 74.697255 36.096488 2.447420 -1.466211 -0.087110 0.241210 -0.100270 -0.238310 
